<svg id="eszrajKdIc11" xmlns="http://www.w3.org/2000/svg" xmlns:xlink="http://www.w3.org/1999/xlink" viewBox="0 0 300 300" shape-rendering="geometricPrecision" text-rendering="geometricPrecision"><path d="M-83.801937,-7.52122c0-123.563604,139.156587-134.925738,145.010742-123.378416s-66.421004,27.482024-66.421004,123.378416s73.782192,103.172255,66.421004,113.069343-146.024803,0-145.010742-113.069343Z" transform="matrix(1 0 0 0.96673 150.517661 156.740218)" fill="#9ca3af"/><line x1="0" y1="-18.337806" x2="0" y2="18.337807" transform="matrix(0 1-1 0 58.973786 150)" opacity="0" fill="none" stroke="#f9fafb" stroke-width="16" stroke-linecap="round"/><line x1="0" y1="-18.337806" x2="0" y2="18.337807" transform="matrix(0 1-1 0 58.973786 150)" opacity="0" fill="none" stroke="#f9fafb" stroke-width="16" stroke-linecap="round"/><line x1="0" y1="-18.337806" x2="0" y2="18.337807" transform="matrix(0 1-1 0 58.973786 150)" opacity="0" fill="none" stroke="#f9fafb" stroke-width="16" stroke-linecap="round"/><line x1="0" y1="-18.337806" x2="0" y2="18.337807" transform="matrix(0 1-1 0 58.973786 150)" opacity="0" fill="none" stroke="#f9fafb" stroke-width="16" stroke-linecap="round"/><line x1="0" y1="-18.337806" x2="0" y2="18.337807" transform="matrix(0 1-1 0 58.973786 150)" opacity="0" fill="none" stroke="#f9fafb" stroke-width="16" stroke-linecap="round"/><line x1="0" y1="-18.337806" x2="0" y2="18.337807" transform="matrix(0 1-1 0 58.973786 150)" opacity="0" fill="none" stroke="#f9fafb" stroke-width="16" stroke-linecap="round"/><line x1="0" y1="-18.337806" x2="0" y2="18.337807" transform="matrix(0 1-1 0 58.973786 150)" opacity="0" fill="none" stroke="#f9fafb" stroke-width="16" stroke-linecap="round"/><line x1="0" y1="-18.337806" x2="0" y2="18.337807" transform="matrix(0 1-1 0 58.973786 150)" opacity="0" fill="none" stroke="#f9fafb" stroke-width="16" stroke-linecap="round"/></svg>