<svg id="eKE7rnmhFTY1" xmlns="http://www.w3.org/2000/svg" xmlns:xlink="http://www.w3.org/1999/xlink" viewBox="0 0 300 300" shape-rendering="geometricPrecision" text-rendering="geometricPrecision"><path d="M-50.926079,0c0-28.125697,22.800382-50.926079,50.926079-50.926079s50.926079,22.800382,50.926079,50.926079-22.800382,50.926079-50.926079,50.926079-50.926079-22.800382-50.926079-50.926079Z" transform="matrix(1 0 0 0.96673 150.517661 156.740218)" fill="#9ca3af" stroke="#9ca3af"/><line x1="0" y1="-18.337806" x2="0" y2="18.337807" transform="matrix(0 1-1 0 58.973786 150)" fill="#9ca3af" stroke="#9ca3af" stroke-width="16" stroke-linecap="round"/><line x1="0" y1="-18.337806" x2="0" y2="18.337807" transform="matrix(.707107 0.707107-.707107 0.707107 85.634747 214.365253)" fill="#9ca3af" stroke="#9ca3af" stroke-width="16" stroke-linecap="round"/><line x1="0" y1="-18.337806" x2="0" y2="18.337807" transform="translate(150 241.026214)" fill="#9ca3af" stroke="#9ca3af" stroke-width="16" stroke-linecap="round"/><line x1="0" y1="-18.337806" x2="0" y2="18.337807" transform="matrix(.707107-.707107 0.707107 0.707107 214.365253 214.365253)" fill="#9ca3af" stroke="#9ca3af" stroke-width="16" stroke-linecap="round"/><line x1="0" y1="-18.337806" x2="0" y2="18.337807" transform="matrix(0-1 1 0 241.026214 150)" fill="#9ca3af" stroke="#9ca3af" stroke-width="16" stroke-linecap="round"/><line x1="0" y1="-18.337806" x2="0" y2="18.337807" transform="matrix(-.707107-.707107 0.707107-.707107 214.365253 85.634747)" fill="#9ca3af" stroke="#9ca3af" stroke-width="16" stroke-linecap="round"/><line x1="0" y1="-18.337806" x2="0" y2="18.337807" transform="matrix(-1 0 0-1 150 58.973786)" fill="#9ca3af" stroke="#9ca3af" stroke-width="16" stroke-linecap="round"/><line x1="0" y1="-18.337806" x2="0" y2="18.337807" transform="matrix(-.707107 0.707107-.707107-.707107 85.634747 85.634747)" fill="#9ca3af" stroke="#9ca3af" stroke-width="16" stroke-linecap="round"/></svg>